<svg xmlns="http://www.w3.org/2000/svg" width="43" height="39" viewBox="0 0 43 39"><defs><clipPath id="wz32a"><path fill="#fff" d="M15.5 30a4.5 4.5 0 1 1 0 9 4.5 4.5 0 0 1 0-9z"/></clipPath><clipPath id="wz32b"><path fill="#fff" d="M32.5 30a4.5 4.5 0 1 1 0 9 4.5 4.5 0 0 1 0-9z"/></clipPath></defs><g><g><g><path fill="none" stroke="#000" stroke-miterlimit="50" stroke-width="4" d="M15.5 30a4.5 4.5 0 1 1 0 9 4.5 4.5 0 0 1 0-9z" clip-path="url(&quot;#wz32a&quot;)"/></g><g><path fill="none" stroke="#000" stroke-miterlimit="50" stroke-width="4" d="M32.5 30a4.5 4.5 0 1 1 0 9 4.5 4.5 0 0 1 0-9z" clip-path="url(&quot;#wz32b&quot;)"/></g><g><path d="M43 6.204l-3.583 14.182c0 .355-.359.709-.717.709L13 24c.717 1.24 1.567 2 3 2h21c.537 0 .446.945.446 1.477 0 .532-.908.523-1.446.523H15c-2.867 0-4.608-1.764-5.146-4.6l-4.3-21.628H.896C.358 1.772 0 1.418 0 .886S.358 0 .896 0H6.27C6.629 0 8 .645 8 1l1 4h33c.358 0 .642.495.82.672.18.178.18.532.18.532zM40 7H9l3 15 25-3z"/></g></g></g></svg>