<svg xmlns="http://www.w3.org/2000/svg" xmlns:xlink="http://www.w3.org/1999/xlink" width="17" height="19" viewBox="0 0 17 19"><defs><path id="1atla" d="M1247 2573.506v7.987a.746.746 0 0 1-.353.637l-7.777 4.765a.708.708 0 0 1-.74 0l-7.778-4.765a.746.746 0 0 1-.352-.637v-7.987a.75.75 0 0 1 .352-.638l7.778-4.764a.707.707 0 0 1 .74 0l7.777 4.764a.75.75 0 0 1 .353.638zm-15.554 7.565l6.331 3.88v-6.259l-6.331-3.88zm13.42-7.565l-6.366-3.9-6.366 3.9 6.366 3.9zm.688 1.307l-6.331 3.88v6.257l6.331-3.879z"/></defs><g><g transform="translate(-1230 -2568)"><use fill="#3e7ce3" xlink:href="#1atla"/></g></g></svg>