<svg xmlns="http://www.w3.org/2000/svg" width="46" height="45" viewBox="0 0 46 45"><g><g><path d="M46 22.5l-.351.52c-.323.476-8.053 11.667-22.649 11.667S.673 23.497.351 23.02L0 22.5l.351-.52C.673 21.503 8.404 10.312 23 10.312S45.326 21.503 45.649 21.98zm-31.528 8.797c-2.352-2.22-3.827-5.34-3.827-8.797 0-3.463 1.479-6.586 3.837-8.806-6.767 2.457-10.928 7.224-12.161 8.805 1.235 1.577 5.401 6.337 12.151 8.798zM33.454 22.5c0-5.687-4.69-10.313-10.454-10.313S12.546 16.813 12.546 22.5c0 5.686 4.69 10.312 10.454 10.312S33.454 28.186 33.454 22.5zm10.225 0c-1.235-1.577-5.401-6.336-12.151-8.797 2.352 2.22 3.826 5.339 3.826 8.797 0 3.463-1.478 6.585-3.837 8.806 6.768-2.458 10.929-7.225 12.162-8.805zm-15.927 0c0 2.584-2.132 4.687-4.752 4.687-2.62 0-4.752-2.103-4.752-4.687 0-2.585 2.132-4.688 4.752-4.688 2.62 0 4.752 2.103 4.752 4.688zm-1.901 0c0-1.551-1.279-2.813-2.851-2.813s-2.851 1.262-2.851 2.813c0 1.55 1.279 2.812 2.851 2.812s2.85-1.261 2.85-2.812zM22 0h2v7h-2zm13.481 9.609l3.326-5.684 1.646.938-3.326 5.683zM5.545 4.864l1.646-.937 3.327 5.683-1.646.937zM22 38h2v7h-2zm13.482-2.61l1.647-.937 3.325 5.684-1.646.937zm-29.94 4.744l3.326-5.684 1.647.938-3.326 5.683z"/></g></g></svg>