<svg xmlns="http://www.w3.org/2000/svg" width="30" height="38" viewBox="0 0 30 38"><defs><clipPath id="vu09a"><path fill="#fff" d="M2.28 37.99a2.214 2.214 0 0 1-1.785-.862C.17 36.7.004 36.165.004 35.537V3.262c0-1.803 1.57-3.27 3.5-3.27h23c1.93 0 3.5 1.467 3.5 3.27v32.275c0 1.668-1.155 2.43-2.228 2.43-.416 0-1.06-.115-1.77-.655l-9.898-7.527c-.299-.23-.99-.238-1.295-.023l-10.81 7.635c-.55.388-1.147.593-1.723.593z"/></clipPath></defs><g><g><path fill="none" stroke="#222" stroke-miterlimit="50" stroke-width="4" d="M2.28 37.99a2.214 2.214 0 0 1-1.785-.862C.17 36.7.004 36.165.004 35.537V3.262c0-1.803 1.57-3.27 3.5-3.27h23c1.93 0 3.5 1.467 3.5 3.27v32.275c0 1.668-1.155 2.43-2.228 2.43-.416 0-1.06-.115-1.77-.655l-9.898-7.527c-.299-.23-.99-.238-1.295-.023l-10.81 7.635c-.55.388-1.147.593-1.723.593z" clip-path="url(&quot;#vu09a&quot;)"/></g></g></svg>