<svg xmlns="http://www.w3.org/2000/svg" width="35" height="38" viewBox="0 0 35 38"><g><g><g><path d="M6.2 6.498l2.836-2.782a4.169 4.169 0 0 0-2.978-1.262c-2.274 0-4.123 1.823-4.123 4.067s1.849 4.067 4.123 4.067c1.801 0 3.428-1.192 3.95-2.89a.976.976 0 0 1 1.208-.64.952.952 0 0 1 .648 1.193c-.782 2.54-3.112 4.246-5.806 4.246C2.717 12.497 0 9.817 0 6.521S2.717.545 6.058.545c1.651 0 3.223.662 4.353 1.816L12.535.28a.973.973 0 0 1 1.367 0 .948.948 0 0 1-.008 1.347L6.872 8.516a.97.97 0 0 1-1.366 0l-2.307-2.29a.934.934 0 0 1 .008-1.349.98.98 0 0 1 1.366.008zm5.917 12.77c0 3.296-2.718 5.977-6.059 5.977S0 22.565 0 19.268c0-3.295 2.717-5.976 6.058-5.976 3.341 0 6.059 2.68 6.059 5.976zm-1.935 0c0-2.244-1.849-4.067-4.124-4.067-2.274 0-4.123 1.823-4.123 4.067 0 2.245 1.849 4.068 4.123 4.068 2.275 0 4.124-1.823 4.124-4.068zM6.058 38C2.717 38 0 35.32 0 32.023c0-3.295 2.717-5.976 6.058-5.976 3.341 0 6.059 2.68 6.059 5.976S9.399 38 6.058 38zm4.124-5.969c0-2.244-1.849-4.067-4.124-4.067-2.274 0-4.123 1.823-4.123 4.067S3.784 36.1 6.058 36.1c2.275 0 4.124-1.824 4.124-4.068z"/></g><g><path d="M15 6h20v2H15z"/></g><g><path d="M15 18h20v2H15z"/></g><g><path d="M15 31h20v2H15z"/></g></g></g></svg>