<svg xmlns="http://www.w3.org/2000/svg" xmlns:xlink="http://www.w3.org/1999/xlink" width="186" height="39" viewBox="0 0 186 39"><defs><path id="w5ysa" d="M416.588 84.299c.3-.799.725-1.516 1.275-2.15a6.432 6.432 0 0 1 1.95-1.524 5.354 5.354 0 0 1 2.475-.575c1.034 0 1.95.3 2.75.9.8.6 1.2 1.483 1.2 2.65 0 1-.316 1.867-.95 2.6-.4.5-.808.95-1.225 1.35-.416.4-.625.95-.625 1.65 0 .5.134.925.4 1.276.267.35.6.624 1 .825.4.2.842.348 1.326.45.483.1.958.15 1.425.15.766 0 1.433-.067 2-.2.566-.134 1.183-.384 1.85-.75a6.931 6.931 0 0 0 3.075-3.326 12.147 12.147 0 0 0 1.075-4.475c0-.333.008-.842.025-1.525.017-.683.033-1.4.05-2.15s.033-1.467.05-2.151c.017-.683.025-1.174.025-1.474-1-.2-2.067-.559-3.2-1.075a14.07 14.07 0 0 1-3.125-1.95 11.752 11.752 0 0 1-2.375-2.626c-.634-.967-.95-1.999-.95-3.1 0-.5.15-.934.45-1.3.3-.367.733-.55 1.3-.55.633 0 1.133.3 1.5.9.366 1.7 1.15 3.2 2.35 4.5 1.2 1.3 2.667 2.085 4.4 2.35.067-1.7.383-3.35.95-4.95s1.4-3.083 2.5-4.45c1.234-1.5 2.65-2.65 4.25-3.45 1.6-.8 3.4-1.2 5.4-1.2.967 0 1.9.116 2.8.35.9.232 1.693.6 2.376 1.1a5.608 5.608 0 0 1 1.65 1.925c.417.784.625 1.725.625 2.825 0 1.566-.35 2.975-1.05 4.225-.7 1.25-1.625 2.35-2.775 3.3-1.15.95-2.442 1.75-3.875 2.4a22.618 22.618 0 0 1-4.35 1.476c0 .166.008.5.024 1 .017.5.025 1.025.025 1.575s.009 1.066.025 1.55c.017.483.025.808.025.974 0 2.034-.491 3.901-1.475 5.601a15.016 15.016 0 0 1-3.825 4.375c-1.567 1.217-3.333 2.167-5.3 2.85-1.967.684-3.934 1.026-5.9 1.026-1.267 0-2.609-.15-4.026-.45a13.209 13.209 0 0 1-3.9-1.476 9.133 9.133 0 0 1-2.95-2.7c-.783-1.116-1.175-2.491-1.175-4.125 0-.833.15-1.651.45-2.451zm30.752-11.524a10.867 10.867 0 0 0 2.575-1.901 9.379 9.379 0 0 0 1.825-2.575c.466-.967.7-1.983.7-3.05 0-.933-.217-1.733-.65-2.4-.434-.666-1.15-1-2.15-1-.867 0-1.634.283-2.3.85a7.596 7.596 0 0 0-1.55 1.9c-.4.7-.709 1.45-.926 2.25-.216.8-.358 1.625-.425 2.475-.066.85-.1 1.692-.1 2.525v1c0 .3.017.617.05.95 1-.167 1.984-.508 2.95-1.024zm23.014-.3c.4.316.758.7 1.075 1.15.317.449.567.932.75 1.45.183.516.275.959.275 1.325v.574c0 .15-.033.309-.1.475-.167.5-.333.934-.5 1.3a94.193 94.193 0 0 0-2.525 4.926 151.123 151.123 0 0 1-2.475 4.975 3.073 3.073 0 0 0-.15.475c-.034.15-.05.309-.05.476 0 .233.083.35.25.35.2 0 .366-.035.5-.101.133-.067.266-.15.4-.25.6-.467 1.283-1.092 2.05-1.875a53.166 53.166 0 0 1 2.25-2.175 1.058 1.058 0 0 1 .55-.295c.171-.18.386-.416.643-.706.533-.6 1.15-1.316 1.85-2.15.7-.833 1.433-1.706 2.2-2.624.767-.917 1.459-1.758 2.075-2.526.617-.766 1.117-1.392 1.5-1.874.384-.484.542-.692.475-.626.234-.267.484-.507.75-.725.267-.216.584-.324.95-.324.434 0 .817.115 1.15.349.534.467 1.026.993 1.476 1.576.45.583.675 1.224.675 1.925 0 .4-.05.792-.15 1.175-.1.382-.2.775-.3 1.174a4.394 4.394 0 0 1-.275.9 2.972 2.972 0 0 0-.225.901c.2-.167.516-.458.95-.875.433-.417.95-.9 1.55-1.45.6-.55 1.258-1.126 1.975-1.726.716-.6 1.458-1.183 2.225-1.75.567-.433 1.225-.85 1.975-1.249a4.962 4.962 0 0 1 2.375-.601c.9 0 1.584.275 2.05.826.467.55.7 1.159.7 1.824 0 .3-.05.6-.15.9a39.213 39.213 0 0 1-2.775 5.926 39.223 39.223 0 0 0-2.775 5.926c0 .332.117.5.35.5a.5.5 0 0 0 .3-.076c.067-.05.167-.109.3-.175a15.142 15.142 0 0 0 2.275-1.975c.75-.783 1.492-1.542 2.225-2.275.226-.31.5-.49.823-.537.137-.418.312-.83.524-1.238a5.758 5.758 0 0 1 2.65-2.576c.6-.265 1.2-.4 1.8-.4.9 0 1.734.26 2.5.776.767.516 1.15 1.291 1.15 2.325 0 .766-.191 1.375-.574 1.825-.384.45-.8.858-1.25 1.225-.45.367-.867.75-1.25 1.15-.384.4-.575.9-.575 1.5 0 .733.258 1.25.775 1.55.516.3 1.108.45 1.775.45.766 0 1.525-.166 2.275-.5a8.659 8.659 0 0 0 2.075-1.3 24.067 24.067 0 0 0 3.075-3.275c.95-1.216 1.842-2.5 2.675-3.85a83.967 83.967 0 0 0 2.4-4.15 182.91 182.91 0 0 1 2.3-4.126c.634-1.1 1.325-2.2 2.075-3.3a73.382 73.382 0 0 1 4.426-5.85c.7-.833 1.3-1.533 1.8-2.1l.5-.55c0-.167-.034-.25-.1-.25a5.3 5.3 0 0 0-.9-.1h-.85c-2.2 0-4.334.358-6.4 1.075a14.778 14.778 0 0 0-5.45 3.325c-.9.833-1.718 1.85-2.451 3.05-.733 1.2-1.1 2.467-1.1 3.8 0 .634.083 1.184.25 1.65.167.467.533.883 1.1 1.25.267.234.575.4.925.5.35.1.675.217.975.35.3.134.558.317.775.55.217.234.325.584.325 1.05 0 .567-.208 1.01-.625 1.325a2.222 2.222 0 0 1-1.375.476c-.5 0-.958-.1-1.375-.3a7.585 7.585 0 0 1-1.175-.7 5.343 5.343 0 0 1-1.875-2.45c-.384-1-.575-2.084-.575-3.25 0-1.501.333-2.934 1-4.301a15.315 15.315 0 0 1 2.65-3.8 18.884 18.884 0 0 1 3.775-3.075 20.527 20.527 0 0 1 4.375-2.075c2.634-.9 5.417-1.35 8.35-1.35.567 0 1.15.025 1.75.075.6.05 1.234.091 1.9.126l.35-.101c.1-.034.31-.133.626-.3l1-.525c.35-.184.692-.35 1.025-.5.334-.15.567-.259.7-.325.267-.134.559-.242.875-.325a3.968 3.968 0 0 1 1.025-.126c.234 0 .459.059.675.176.217.116.325.308.325.574 0 .3-.108.55-.325.751a3.526 3.526 0 0 1-.75.525c-.283.149-.575.316-.875.5-.3.184-.533.391-.7.625v.149c.767.368 1.517.793 2.25 1.277a10.085 10.085 0 0 1 1.975 1.699 8.097 8.097 0 0 1 1.4 2.175c.35.8.525 1.7.525 2.7 0 .933-.183 1.784-.55 2.55a7.767 7.767 0 0 1-1.45 2.075c-.6.617-1.275 1.175-2.025 1.675s-1.508.95-2.275 1.351c1.033.966 1.792 1.908 2.275 2.825.484.916.725 2.075.725 3.475 0 2.634-.816 5.05-2.45 7.25-1.2 1.7-2.7 3.025-4.5 3.975-1.8.951-3.75 1.425-5.85 1.425-1.9 0-3.492-.441-4.776-1.324-1.283-.884-2.208-2.193-2.775-3.925-1.666 1.7-3.475 3.083-5.425 4.149-1.95 1.067-4.125 1.6-6.525 1.6-1.234 0-2.442-.174-3.625-.524a9.953 9.953 0 0 1-3.176-1.576 8.038 8.038 0 0 1-2.25-2.6 6.844 6.844 0 0 1-.769-2.357 41.9 41.9 0 0 1-3.353 3.206c-.817.701-1.633 1.335-2.45 1.901a17.272 17.272 0 0 1-2.375 1.4 5.259 5.259 0 0 1-1.2.376 6.885 6.885 0 0 1-1.3.125 6.895 6.895 0 0 1-1.725-.226c-.584-.15-1.025-.575-1.325-1.274-.1-.3-.184-.591-.25-.876a3.802 3.802 0 0 1-.1-.875c0-.767.183-1.482.55-2.15a48.83 48.83 0 0 1 1.85-3.875 92.837 92.837 0 0 0 1.95-3.874c.033-.101.05-.217.05-.351 0-.2-.067-.3-.2-.3-.134 0-.284.082-.45.25-1.767 1.4-3.367 3-4.8 4.8a733.585 733.585 0 0 1-4.3 5.35c-.567.7-1.21 1.391-1.926 2.075a6.36 6.36 0 0 1-3.025 1.626 1.69 1.69 0 0 1-.4.05c-.467 0-.958-.1-1.475-.3-.517-.2-.775-.567-.775-1.1 0-.166.008-.326.025-.476.017-.15.058-.309.125-.475.767-1.6 1.55-3.166 2.35-4.7.8-1.533 1.583-3.067 2.35-4.6a.62.62 0 0 0 .2-.45l-.05-.15c-.666.766-1.3 1.5-1.9 2.2-.6.7-1.233 1.383-1.9 2.05-.133.134-.283.25-.45.35a.964.964 0 0 1-.5.15 25.486 25.486 0 0 1-1.668 1.7c-.683.633-1.375 1.267-2.075 1.9-.434.368-.95.768-1.55 1.2-.6.434-1.225.825-1.875 1.176-.65.35-1.292.641-1.925.875-.634.233-1.2.35-1.7.35-1.234 0-2.117-.325-2.65-.975-.534-.65-.85-1.526-.95-2.625h-.35l-.35.35a26.486 26.486 0 0 1-3.126 2.124 6.99 6.99 0 0 1-3.575.976 3.925 3.925 0 0 1-2.7-1.026c-.767-.683-1.15-1.641-1.15-2.874 0-.534.083-1.1.25-1.7.166-.601.333-1.167.5-1.7a.337.337 0 0 0-.15.025.34.34 0 0 1-.15.024c-.2 0-.359-.024-.475-.074a.845.845 0 0 1-.225-.125 3.493 3.493 0 0 1-.375-.326.578.578 0 0 1-.175-.425c0-.367.075-.667.225-.9.15-.233.341-.466.575-.7.233-.233.525-.542.875-.925s.716-.783 1.1-1.2a56.92 56.92 0 0 0 1.075-1.2c.333-.384.617-.708.85-.975a32.182 32.182 0 0 1 3.125-3.275 23.282 23.282 0 0 1 3.775-2.776 8.577 8.577 0 0 1 4.35-1.15c.467 0 .95.059 1.45.176.5.117.95.257 1.35.425.167.066.359.174.576.326.216.15.408.223.575.223.033 0 .116-.032.25-.1l1.25-2.2c.366-.6.833-.9 1.4-.9.433 0 .85.159 1.25.475zm-12.85 16.675c.5-.367.9-.683 1.2-.95 1-1.1 1.908-2.183 2.724-3.25.817-1.067 1.559-2.3 2.226-3.7.166-.3.325-.634.475-1 .15-.366.225-.7.225-1 0-.334-.084-.608-.25-.825-.167-.217-.434-.326-.8-.326-.4 0-.775.142-1.126.426-.35.283-.658.574-.925.875a42.868 42.868 0 0 0-3.2 4.25 29.646 29.646 0 0 0-2.5 4.65 2.82 2.82 0 0 0-.1.65c0 .2.05.375.15.525.1.15.284.225.55.225.4 0 .85-.183 1.35-.55zm67.167.626c.55.616 1.309.924 2.276.924.733 0 1.475-.207 2.225-.625a8.963 8.963 0 0 0 2.075-1.6 11.149 11.149 0 0 0 1.65-2.175c.467-.8.783-1.6.95-2.4.167-.766.25-1.567.25-2.4 0-.634-.058-1.25-.175-1.85a6.304 6.304 0 0 0-.625-1.75 1.396 1.396 0 0 1-.225-.35c-.083-.167-.192-.25-.325-.25-.033 0-.117-.008-.25-.025a3.48 3.48 0 0 0-.425-.026c-.15 0-.292-.008-.425-.024a2.916 2.916 0 0 0-.25-.026c-.5-.065-.959-.24-1.375-.524-.417-.284-.625-.709-.625-1.276 0-.6.283-1.025.85-1.275.566-.25 1.1-.375 1.6-.375.366 0 .708.017 1.025.05.317.034.642.05.975.05.667 0 1.333-.316 2-.95a7.583 7.583 0 0 0 1.825-2.35c.45-.899.675-1.883.675-2.95 0-1-.3-1.883-.9-2.65-.6-.766-1.383-1.333-2.35-1.7-.233 0-.483.167-.75.5l-.6.75a32.99 32.99 0 0 0-3.775 7.2 373.517 373.517 0 0 0-2.825 7.8c0 .067-.025.175-.075.326-.05.15-.075.258-.075.325.433-.134.875-.25 1.325-.35.45-.1.858-.15 1.225-.15.266 0 .55.083.85.25.3.167.45.416.45.75 0 .3-.117.55-.35.75-.234.2-.5.359-.8.475-.3.116-.617.209-.95.275-.334.066-.6.15-.8.25a9.024 9.024 0 0 0-2.85 1.976c-.834.849-1.25 1.924-1.25 3.224 0 .834.274 1.559.824 2.176zm37.389-14.751c.9.65 1.35 1.624 1.35 2.924 0 .934-.292 1.876-.875 2.826a14.15 14.15 0 0 1-2.175 2.7 22.762 22.762 0 0 1-2.825 2.35 28.195 28.195 0 0 1-2.825 1.775c-.4.234-.875.483-1.425.75s-1.059.483-1.526.65c-.1.1-.174.258-.225.475a2.99 2.99 0 0 0-.075.675c0 .2.034.4.1.6.267.766.8 1.15 1.6 1.15.567 0 1.15-.124 1.75-.375.6-.25 1.184-.549 1.75-.9.567-.35 1.1-.733 1.6-1.15.5-.417.934-.809 1.3-1.175l3.051-2.9c.133-.133.3-.225.5-.275.06-.015.117-.028.173-.038a42.953 42.953 0 0 0 2.45-2.786 54.098 54.098 0 0 1 3.025-3.451 29.62 29.62 0 0 1 3.4-3.05c1.217-.934 2.609-1.683 4.175-2.25.267-.1.567-.192.9-.275a4.087 4.087 0 0 1 1-.125c.8 0 1.534.233 2.2.7.667.466 1 1.149 1 2.049 0 .5-.108.917-.324 1.25-.217.334-.509.6-.875.8-.367.2-.775.334-1.225.401-.45.066-.909.1-1.376.1-.6 0-1.166-.05-1.7-.15-.033.167-.05.308-.05.425v.374c0 .634.117 1.26.35 1.876.234.617.484 1.24.75 1.875.267.633.517 1.3.75 2 .234.7.35 1.467.35 2.3.234-.1.484-.267.75-.5.267-.234.526-.476.776-.724.25-.251.508-.467.775-.652a1.43 1.43 0 0 1 .758-.273 106.23 106.23 0 0 0 3.306-3.526 52.348 52.348 0 0 0 3.5-4.326c-.4-.033-.724-.133-.974-.3-.25-.166-.375-.45-.375-.85 0-.733.316-1.275.95-1.625.633-.35 1.266-.559 1.9-.625h1c.5-.6.958-1.208 1.375-1.825.417-.617.817-1.241 1.2-1.875.383-.633.767-1.25 1.15-1.849.383-.601.825-1.184 1.325-1.75.2-.1.417-.151.65-.151.333 0 .633.1.9.3a8.612 8.612 0 0 1 1.575 1.875c.45.717.675 1.46.675 2.225 0 .168-.008.342-.025.526a1.858 1.858 0 0 1-.125.525c-.1.265-.267.624-.5 1.075-.233.45-.433.841-.6 1.174h2c.5 0 .967.06 1.4.176.434.116.65.44.65.975 0 .532-.216 1.009-.65 1.424-.433.416-.85.625-1.25.625h-3.75a292.008 292.008 0 0 1-2.9 5.65 162.242 162.242 0 0 0-2.95 5.901c-.134.267-.2.5-.2.7 0 .2.05.375.15.525.1.15.25.225.45.225a.56.56 0 0 0 .25-.05 6.417 6.417 0 0 0 1.575-.75 15.623 15.623 0 0 0 1.525-1.124c.5-.417.967-.842 1.4-1.276.433-.434.85-.834 1.25-1.2.2-.2.425-.4.675-.6.25-.2.558-.3.925-.3.267.033.5.117.7.25.2.133.3.383.3.75 0 .233-.05.467-.15.7-.1.234-.233.433-.4.6a41.007 41.007 0 0 1-3.5 3.65c-1.167 1.068-2.55 2.067-4.15 3-.8.467-1.617.86-2.45 1.175a7.134 7.134 0 0 1-2.55.476c-1.167 0-2.167-.309-3-.925-.834-.617-1.25-1.526-1.25-2.726 0-.4.041-.8.124-1.2.084-.4.192-.784.325-1.15.134-.3.342-.717.625-1.25.284-.533.584-1.092.9-1.675a92.33 92.33 0 0 0 .875-1.65c.267-.517.45-.908.55-1.176-.166.168-.375.384-.624.65-.25.268-.5.55-.75.85-.25.301-.492.585-.726.85a13.25 13.25 0 0 1-.55.6c-.6.7-1.133 1.05-1.6 1.05h-.052a13.242 13.242 0 0 1-1.637 1.526 9.872 9.872 0 0 1-2.026 1.225c-.4.7-.833 1.35-1.3 1.951a8.09 8.09 0 0 1-1.625 1.574c-.616.45-1.316.809-2.1 1.076-.783.266-1.675.4-2.675.4-.7 0-1.425-.084-2.175-.25a6.934 6.934 0 0 1-2.05-.8 4.463 4.463 0 0 1-1.5-1.45c-.384-.6-.575-1.334-.575-2.201 0-.567.116-1.083.35-1.55.233-.467.55-.874.95-1.224.4-.351.85-.617 1.35-.801a4.46 4.46 0 0 1 1.55-.275c.633 0 1.192.033 1.675.1.483.066 1.008.133 1.575.2.167-1.366.308-2.726.425-4.075a21.4 21.4 0 0 1 .725-3.976c-.733.467-1.392.976-1.975 1.526a19.795 19.795 0 0 0-1.625 1.724c-.5.6-.992 1.217-1.475 1.85a31.272 31.272 0 0 1-1.575 1.9c-.3.335-.625.692-.975 1.076-.32.35-.701.54-1.145.57l-.003.005a76.297 76.297 0 0 1-2.875 2.825 22.883 22.883 0 0 1-3.125 2.45 15.904 15.904 0 0 1-3.55 1.726c-1.267.433-2.617.65-4.05.65a7.025 7.025 0 0 1-2.326-.375 5.685 5.685 0 0 1-1.9-1.101 5.214 5.214 0 0 1-1.3-1.75c-.317-.683-.475-1.458-.475-2.325 0-.067.008-.333.025-.8s.042-.816.075-1.05c-.433 0-.8-.084-1.1-.25-.3-.166-.45-.483-.45-.95 0-.334.117-.6.35-.8a85.191 85.191 0 0 0 2.925-3.3 45.414 45.414 0 0 1 3.1-3.325 29.834 29.834 0 0 1 3.45-2.876 16.023 16.023 0 0 1 3.926-2.05 7.602 7.602 0 0 1 2.75-.5c1.233 0 2.3.325 3.2.976zm-3.725 2.374a4.313 4.313 0 0 0-.725.75 29.568 29.568 0 0 0-2.475 3.451 38.814 38.814 0 0 0-2.075 3.8c-.034.034-.05.067-.05.1-.034.033-.05.116-.05.25 0 .067.033.099.1.099.033 0 .116-.032.25-.099a.785.785 0 0 0 .2-.15c.433-.266.808-.525 1.125-.775a9.98 9.98 0 0 0 .875-.775c.266-.267.55-.559.85-.875.3-.317.633-.675 1-1.076.2-.232.441-.54.725-.924.283-.384.542-.784.775-1.2a9.77 9.77 0 0 0 .6-1.276c.167-.432.25-.816.25-1.15 0-.366-.167-.55-.5-.55-.267 0-.559.135-.875.4zm8.373 14.327c.317.182.658.274 1.025.274a3.187 3.187 0 0 0 1.85-.674c.534-.418.85-.909.95-1.476-.7-.333-1.533-.5-2.5-.5-.467 0-.883.1-1.25.3-.367.2-.55.583-.55 1.15 0 .433.158.742.475.926z"/></defs><g><g transform="translate(-416 -57)"><use fill="#222" xlink:href="#w5ysa"/></g></g></svg>