<svg xmlns="http://www.w3.org/2000/svg" width="17.19" height="17" viewBox="0 0 17.19 17">
  <metadata><?xpacket begin="﻿" id="W5M0MpCehiHzreSzNTczkc9d"?>
<x:xmpmeta xmlns:x="adobe:ns:meta/" x:xmptk="Adobe XMP Core 5.6-c138 79.159824, 2016/09/14-01:09:01        ">
   <rdf:RDF xmlns:rdf="http://www.w3.org/1999/02/22-rdf-syntax-ns#">
      <rdf:Description rdf:about=""/>
   </rdf:RDF>
</x:xmpmeta>
                                                                                                    
                                                                                                    
                                                                                                    
                                                                                                    
                                                                                                    
                                                                                                    
                                                                                                    
                                                                                                    
                                                                                                    
                                                                                                    
                                                                                                    
                                                                                                    
                                                                                                    
                                                                                                    
                                                                                                    
                                                                                                    
                                                                                                    
                                                                                                    
                                                                                                    
                                                                                                    
                           
<?xpacket end="w"?></metadata>
<defs>
    <style>
      .cls-1 {
        fill: #f1bb00;
        fill-rule: evenodd;
      }
    </style>
  </defs>
  <path id="Forma_1" data-name="Forma 1" class="cls-1" d="M1470.8,2356.7a1.275,1.275,0,0,0,.31-1.3,1.214,1.214,0,0,0-.99-0.87l-4.16-.62a0.562,0.562,0,0,1-.41-0.31l-1.86-3.89a1.207,1.207,0,0,0-2.2,0l-1.86,3.89a0.544,0.544,0,0,1-.41.31l-4.16.62a1.214,1.214,0,0,0-.99.87,1.275,1.275,0,0,0,.31,1.3l3.01,3.03a0.6,0.6,0,0,1,.15.5l-0.71,4.28a1.313,1.313,0,0,0,.27,1.03,1.231,1.231,0,0,0,1.52.31l3.72-2.02a0.5,0.5,0,0,1,.5,0l3.72,2.02a1.3,1.3,0,0,0,.57.14,1.219,1.219,0,0,0,.95-0.45,1.275,1.275,0,0,0,.27-1.03l-0.71-4.28a0.6,0.6,0,0,1,.15-0.5Z" transform="translate(-1454 -2349)"/>
</svg>
