<svg
        xmlns="http://www.w3.org/2000/svg"
        xmlns:xlink="http://www.w3.org/1999/xlink"
        width="0.952cm" height="0.952cm">
    <path fill-rule="evenodd"  fill="rgb(241, 202, 73)"
          d="M13.499,26.998 C6.057,26.998 0.002,20.941 0.002,13.500 C0.002,6.058 6.057,0.002 13.499,0.002 C20.943,0.002 26.998,6.058 26.998,13.500 C26.998,20.941 20.943,26.998 13.499,26.998 ZM13.499,1.221 C6.728,1.221 1.223,6.729 1.223,13.500 C1.223,20.270 6.728,25.778 13.499,25.778 C20.270,25.778 25.776,20.271 25.776,13.500 C25.776,6.729 20.270,1.221 13.499,1.221 ZM23.826,14.315 C23.838,14.113 23.858,13.911 23.858,13.703 C23.858,13.498 23.839,13.296 23.826,13.092 L25.227,13.092 L25.227,14.315 L23.826,14.315 ZM22.738,9.097 L23.843,8.535 L24.120,9.080 L23.004,9.649 C22.923,9.460 22.832,9.278 22.738,9.097 ZM23.022,20.782 L21.732,19.892 C21.856,19.730 21.982,19.570 22.097,19.401 L23.369,20.278 L23.022,20.782 ZM19.100,5.139 L19.707,4.194 L20.221,4.526 L19.609,5.478 C19.444,5.360 19.274,5.247 19.100,5.139 ZM13.135,3.625 L13.135,2.224 L14.358,2.224 L14.358,3.625 C14.156,3.613 13.953,3.595 13.747,3.596 C13.539,3.596 13.338,3.613 13.135,3.625 ZM8.293,3.903 L8.839,3.627 L9.338,4.617 C9.155,4.705 8.972,4.797 8.795,4.897 L8.293,3.903 ZM13.317,13.500 L13.317,13.101 L13.317,4.689 L14.178,4.689 L14.178,13.101 L19.884,13.101 L19.884,14.307 L13.322,14.307 L8.360,19.752 L8.225,19.629 L13.317,14.040 L13.317,13.500 ZM7.788,23.827 L7.272,23.495 L8.158,22.125 C8.326,22.238 8.502,22.341 8.679,22.443 L7.788,23.827 ZM4.125,7.741 L4.473,7.236 L5.463,7.919 C5.345,8.087 5.239,8.260 5.131,8.435 L4.125,7.741 ZM2.267,14.315 L2.267,13.092 L3.669,13.092 C3.658,13.295 3.638,13.497 3.638,13.703 C3.638,13.911 3.657,14.113 3.669,14.315 L2.267,14.315 ZM5.020,18.791 L3.653,19.485 L3.375,18.940 L4.726,18.253 C4.818,18.435 4.917,18.614 5.020,18.791 ZM14.359,23.783 L14.359,25.186 L13.136,25.186 L13.136,23.783 C13.339,23.795 13.540,23.814 13.748,23.815 C13.954,23.815 14.157,23.796 14.359,23.783 ZM19.201,24.116 L18.654,24.393 L17.907,22.911 C18.092,22.827 18.278,22.741 18.458,22.646 L19.201,24.116 Z"/>
</svg>