<svg width="40" height="20" viewBox="0 0 40 20" fill="none" xmlns="http://www.w3.org/2000/svg">
<path d="M38.7437 19.9727C38.7586 19.9698 38.773 19.9658 38.7876 19.962C38.8001 19.9588 38.8126 19.9562 38.8248 19.9524C38.8391 19.9481 38.853 19.9427 38.8669 19.9377C38.8792 19.9333 38.8916 19.9293 38.9038 19.9241C38.9169 19.9187 38.9296 19.9123 38.9424 19.9062C38.9548 19.9003 38.9674 19.8948 38.9796 19.8882C38.9918 19.8817 39.0034 19.8743 39.0152 19.8672C39.0274 19.86 39.0397 19.8531 39.0516 19.8451C39.0642 19.8367 39.076 19.8273 39.0882 19.8182C39.0985 19.8106 39.1089 19.8034 39.119 19.7952C39.1374 19.78 39.155 19.7638 39.1721 19.7472C39.1752 19.7442 39.1785 19.7417 39.1816 19.7386C39.1848 19.7354 39.1875 19.7319 39.1906 19.7286C39.207 19.7117 39.223 19.6944 39.238 19.6762C39.2468 19.6654 39.2544 19.6543 39.2626 19.6432C39.2711 19.6318 39.28 19.6207 39.2878 19.6089C39.2963 19.5962 39.3037 19.5831 39.3114 19.5701C39.3179 19.5592 39.3249 19.5485 39.3309 19.5372C39.338 19.524 39.3439 19.5105 39.3502 19.4971C39.3558 19.4853 39.3617 19.4735 39.3669 19.4613C39.3723 19.4482 39.3767 19.4349 39.3815 19.4215C39.3861 19.4085 39.3911 19.3957 39.3951 19.3824C39.3992 19.369 39.4022 19.3553 39.4056 19.3416C39.4089 19.3282 39.4128 19.3149 39.4154 19.3014C39.4186 19.2853 39.4206 19.2691 39.4228 19.2529C39.4244 19.2415 39.4266 19.2302 39.4277 19.2187C39.4306 19.1903 39.4321 19.1619 39.4321 19.1334V0.855148C39.4321 0.382764 39.0493 0 38.5769 0H11.6398C11.6322 0 11.625 0.000911531 11.6174 0.00113957C11.6011 0.00159565 11.5849 0.00228013 11.5687 0.00364837C11.5559 0.00467454 11.5431 0.00615709 11.5303 0.00786739C11.5157 0.0096917 11.5012 0.0118579 11.4868 0.0144804C11.4732 0.0168748 11.4597 0.0197251 11.4464 0.0228036C11.4328 0.0259961 11.4193 0.0294171 11.4058 0.0332937C11.3925 0.0370564 11.3794 0.0411605 11.3664 0.0454932C11.353 0.050054 11.3397 0.0548435 11.3266 0.0600884C11.3141 0.0649913 11.3019 0.0700075 11.2898 0.0754805C11.2764 0.0815235 11.2631 0.0880234 11.2498 0.0947505C11.2385 0.100566 11.2275 0.106494 11.2165 0.112765C11.2033 0.120291 11.1903 0.128272 11.1774 0.136481C11.1668 0.143323 11.1564 0.150392 11.1462 0.157575C11.1341 0.166126 11.1221 0.17502 11.1104 0.18437C11.0997 0.192921 11.0892 0.201701 11.0788 0.210708C11.0685 0.219716 11.0584 0.228723 11.0485 0.238301C11.0372 0.249133 11.0263 0.26042 11.0156 0.271822C11.0103 0.277523 11.0046 0.282541 10.9994 0.288356C10.9964 0.291776 10.994 0.295539 10.991 0.29896C10.9803 0.311388 10.9702 0.324386 10.9602 0.337498C10.9529 0.347076 10.9454 0.356653 10.9386 0.366459C10.9297 0.379229 10.9214 0.392342 10.9132 0.405568C10.9065 0.4164 10.8996 0.427117 10.8934 0.438177C10.8862 0.450947 10.8799 0.46406 10.8734 0.477172C10.8675 0.489144 10.8614 0.501117 10.856 0.513317C10.8504 0.526201 10.8455 0.539541 10.8406 0.552654C10.8357 0.565538 10.8307 0.578308 10.8265 0.591306C10.8223 0.604418 10.8188 0.617758 10.8152 0.631099C10.8115 0.644781 10.8077 0.658349 10.8046 0.672146C10.8017 0.68503 10.7998 0.698143 10.7975 0.711141C10.795 0.725963 10.7925 0.740786 10.7907 0.755608C10.7892 0.767923 10.7885 0.780464 10.7876 0.793006C10.7864 0.808969 10.7854 0.824933 10.7852 0.841009C10.7851 0.845684 10.7845 0.850245 10.7845 0.85492V6.12856C10.7845 6.60094 11.1673 6.98371 11.6397 6.98371C12.112 6.98371 12.4948 6.60094 12.4948 6.12856V2.75415L20.0978 9.48553C20.0581 9.51346 20.0199 9.54436 19.9843 9.57982L12.4947 17.0694V11.4496C12.4947 10.9772 12.1119 10.5945 11.6395 10.5945C11.1672 10.5945 10.7844 10.9772 10.7844 11.4496V12.4945H6.36613C5.89375 12.4945 5.51099 12.8773 5.51099 13.3497C5.51099 13.822 5.89375 14.2048 6.36613 14.2048H10.7844V19.134C10.7844 19.6064 11.1672 19.9891 11.6395 19.9891H38.5767C38.6049 19.9891 38.633 19.9877 38.6611 19.9849C38.6742 19.9837 38.6868 19.9812 38.6997 19.9793C38.7146 19.9773 38.7291 19.9756 38.7437 19.9727ZM37.7217 17.0695L30.2319 9.57994C30.2271 9.57515 30.222 9.57116 30.2171 9.56659L35.8478 4.78951C36.2078 4.48394 36.2521 3.9444 35.9465 3.58421C35.6412 3.22425 35.1016 3.17978 34.7412 3.48547L25.1201 11.6481L13.8955 1.71041H37.7217V17.0695ZM21.1938 10.7895C21.2548 10.7285 21.3043 10.6605 21.343 10.5882L24.5413 13.4199C24.703 13.563 24.9055 13.6348 25.1082 13.6348C25.305 13.6348 25.5017 13.5672 25.6616 13.4317L28.9211 10.6663C28.9507 10.7096 28.9841 10.751 29.0225 10.7895L36.5121 18.2791H13.7042L21.1938 10.7895Z" fill="#BAD2DE"/>
<path d="M0.855148 9.7391H15.2977C15.7701 9.7391 16.1528 9.35634 16.1528 8.88396C16.1528 8.41157 15.7701 8.02881 15.2977 8.02881H0.855148C0.382764 8.02881 0 8.41157 0 8.88396C0 9.35634 0.382764 9.7391 0.855148 9.7391Z" fill="#BAD2DE"/>
<path d="M2.35173 5.02646H8.8366C9.30898 5.02646 9.69175 4.64369 9.69175 4.17131C9.69175 3.69893 9.30898 3.31616 8.8366 3.31616H2.35173C1.87935 3.31616 1.49658 3.69893 1.49658 4.17131C1.49658 4.64369 1.87935 5.02646 2.35173 5.02646Z" fill="#BAD2DE"/>
<path d="M7.12623 16.1052H0.855148C0.382764 16.1052 0 16.488 0 16.9604C0 17.4328 0.382764 17.8155 0.855148 17.8155H7.12623C7.59861 17.8155 7.98138 17.4328 7.98138 16.9604C7.98138 16.488 7.59861 16.1052 7.12623 16.1052Z" fill="#BAD2DE"/>
</svg>
