<svg xmlns="http://www.w3.org/2000/svg" xmlns:xlink="http://www.w3.org/1999/xlink" width="16" height="16" viewBox="0 0 16 16"><defs><path id="rb8xa" d="M1513.658 171.61a6.535 6.535 0 0 1-4.703-1.994c-2.592-2.653-2.592-6.969 0-9.624a6.537 6.537 0 0 1 4.703-1.992c1.777 0 3.447.708 4.703 1.992a6.841 6.841 0 0 1 1.948 4.813c0 1.485-.463 2.9-1.318 4.068l4.008 4.08-1.014 1.038-3.971-4.044a6.514 6.514 0 0 1-4.356 1.663zm0-12.143a5.129 5.129 0 0 0-3.688 1.563c-2.034 2.082-2.035 5.468 0 7.549a5.126 5.126 0 0 0 3.688 1.563 5.124 5.124 0 0 0 3.689-1.563 5.366 5.366 0 0 0 1.528-3.774 5.367 5.367 0 0 0-1.528-3.775 5.128 5.128 0 0 0-3.689-1.563z"/></defs><g><g transform="translate(-1507 -158)"><use fill="#222" xlink:href="#rb8xa"/></g></g></svg>