<svg xmlns="http://www.w3.org/2000/svg" xmlns:xlink="http://www.w3.org/1999/xlink" width="15" height="17" viewBox="0 0 15 17"><defs><path id="b415a" d="M1288 249.996l-9 6s8.642 5.37 9 5"/><path id="b415b" d="M1287.5 248a2.5 2.5 0 1 1 0 5 2.5 2.5 0 0 1 0-5z"/><path id="b415c" d="M1287.5 260a2.5 2.5 0 1 1 0 5 2.5 2.5 0 0 1 0-5z"/><path id="b415d" d="M1277.5 254a2.5 2.5 0 1 1 0 5 2.5 2.5 0 0 1 0-5z"/><clipPath id="b415e"><use fill="#fff" xlink:href="#b415a"/></clipPath></defs><g><g transform="translate(-1275 -248)"><g><use fill="#6493ad" xlink:href="#b415b"/></g><g><use fill="#6493ad" xlink:href="#b415c"/></g><g><use fill="#6493ad" xlink:href="#b415d"/></g><g><use fill="#fff" fill-opacity="0" stroke="#6493ad" stroke-miterlimit="50" stroke-width="2" clip-path="url(&quot;#b415e&quot;)" xlink:href="#b415a"/></g></g></g></svg>