<svg xmlns="http://www.w3.org/2000/svg" width="39" height="39" viewBox="0 0 39 39"><g><g><path fill="#000" d="M19.579 26.968c-6.075 0-11.018-4.86-11.018-10.834v-5.3C8.56 4.86 13.504-.001 19.579-.001c6.076 0 11.02 4.861 11.02 10.835v5.3c0 5.973-4.944 10.834-11.02 10.834zm0-25.252c-5.113 0-9.272 4.09-9.272 9.118v5.3c0 5.026 4.16 9.116 9.272 9.116 5.113 0 9.273-4.09 9.273-9.117v-5.3c0-5.026-4.16-9.117-9.273-9.117zM34.322 39H4.677C2.098 39 0 36.936 0 34.4v-4.038c0-1.504.769-3.516 4.433-4.566L8.87 24.59a.874.874 0 0 1 1.074.599.857.857 0 0 1-.608 1.056L4.91 27.448C1.746 28.355 2 29.504 2 30v5c0 1.59 1.384 2 3 2h29c1.616 0 3-.41 3-2l.253-4.638c0-1.34-1.067-2.321-3.173-2.916l-4.219-1.16a.857.857 0 0 1-.606-1.057.875.875 0 0 1 1.076-.596l4.226 1.161C38.23 26.833 39 28.851 39 30.362V34.4c0 2.536-2.099 4.6-4.678 4.6z"/></g></g></svg>