<svg id="Слой_1" data-name="Слой 1" fill="#fff" xmlns="http://www.w3.org/2000/svg" viewBox="0 0 399.44 110.17"><defs><style>.cls-1{fill:#22cbff;}</style></defs><title>sanbest_logo</title><path d="M46.4,110V98.83l-5.65,9.36h-1.7L33.49,98.8V110H29.91V93.18H34l6,10.49,6.26-10.49h3.67L50,110Z"/><path d="M67.15,94.76a6.86,6.86,0,0,1,2,5.36V110H65.41v-2a4.6,4.6,0,0,1-2.06,1.68,9,9,0,0,1-6.52-.06,5.12,5.12,0,0,1-2.18-1.79,4.58,4.58,0,0,1-.77-2.59,4.44,4.44,0,0,1,1.68-3.63c1.12-.92,2.89-1.37,5.3-1.37h4.33V99.9a3.44,3.44,0,0,0-1-2.7,4.54,4.54,0,0,0-3.13-1,9.13,9.13,0,0,0-2.78.44,7.06,7.06,0,0,0-2.31,1.23l-1.54-2.86a9.61,9.61,0,0,1,3.18-1.54A14.28,14.28,0,0,1,61.48,93,8.16,8.16,0,0,1,67.15,94.76Zm-3.58,11.88a3.66,3.66,0,0,0,1.62-1.93v-1.95h-4c-2.26,0-3.39.74-3.39,2.23a2,2,0,0,0,.84,1.7,3.89,3.89,0,0,0,2.36.62A5.06,5.06,0,0,0,63.57,106.64Z"/><path d="M86.87,96.51h-9V110H74V93.18H86.87Z"/><path d="M101.65,94.76a6.86,6.86,0,0,1,2,5.36V110H99.91v-2a4.6,4.6,0,0,1-2.06,1.68,8,8,0,0,1-3.22.58,7.87,7.87,0,0,1-3.3-.64,5.12,5.12,0,0,1-2.18-1.79,4.51,4.51,0,0,1-.77-2.59,4.44,4.44,0,0,1,1.68-3.63c1.12-.92,2.88-1.37,5.29-1.37h4.34V99.9a3.44,3.44,0,0,0-1-2.7,4.58,4.58,0,0,0-3.13-1,9.13,9.13,0,0,0-2.78.44,7.06,7.06,0,0,0-2.31,1.23l-1.54-2.86a9.66,9.66,0,0,1,3.17-1.54A14.4,14.4,0,0,1,96,93,8.2,8.2,0,0,1,101.65,94.76Zm-3.58,11.88a3.75,3.75,0,0,0,1.62-1.93v-1.95h-4c-2.27,0-3.4.74-3.4,2.23a2,2,0,0,0,.85,1.7,3.89,3.89,0,0,0,2.36.62A5.06,5.06,0,0,0,98.07,106.64Z"/><path d="M120.72,102.65a3.47,3.47,0,0,1,.87,2.37,4,4,0,0,1-1,2.72,6.8,6.8,0,0,1-2.86,1.83,12.12,12.12,0,0,1-4.15.67,16.13,16.13,0,0,1-3.8-.46,13.5,13.5,0,0,1-3.36-1.3l1.13-2.93a10.86,10.86,0,0,0,2.77,1.07,12.92,12.92,0,0,0,3.08.38,6.46,6.46,0,0,0,3.09-.61,1.88,1.88,0,0,0,1.12-1.68,1.67,1.67,0,0,0-.87-1.51,4.58,4.58,0,0,0-2.43-.54H111V100h3a4.4,4.4,0,0,0,2.31-.5,1.55,1.55,0,0,0,.84-1.41,1.63,1.63,0,0,0-1-1.45,6,6,0,0,0-2.77-.53,13.31,13.31,0,0,0-5.3,1.22l-1-2.89a15.71,15.71,0,0,1,6.66-1.54,12,12,0,0,1,3.83.58,6.32,6.32,0,0,1,2.66,1.64,3.46,3.46,0,0,1,1,2.4,3.37,3.37,0,0,1-.76,2.18,4.84,4.84,0,0,1-2.07,1.5A4.8,4.8,0,0,1,120.72,102.65Z"/><path d="M125.67,93.18h3.93v11.06l9.27-11.06h3.58V110h-3.93V98.89L129.28,110h-3.61Z"/><path d="M147.73,93.18h3.92V100h8.46V93.18H164V110h-3.92v-6.63h-8.46V110h-3.92Z"/><path d="M180.94,109.07A8,8,0,0,1,177.7,106a9.08,9.08,0,0,1,0-8.88,8.2,8.2,0,0,1,3.22-3,9.74,9.74,0,0,1,4.7-1.1A9.07,9.07,0,0,1,190,94a6.54,6.54,0,0,1,2.81,2.89l-3,1.76A4.83,4.83,0,0,0,188,96.9a4.89,4.89,0,0,0-2.37-.58,5,5,0,0,0-3.65,1.43,5.79,5.79,0,0,0,0,7.63,5.3,5.3,0,0,0,6,.85,4.78,4.78,0,0,0,1.8-1.75l3,1.77a6.85,6.85,0,0,1-2.84,2.9,8.9,8.9,0,0,1-4.32,1A9.74,9.74,0,0,1,180.94,109.07Z"/><path d="M208.16,94.76a6.86,6.86,0,0,1,2,5.36V110h-3.7v-2a4.66,4.66,0,0,1-2.06,1.68,8,8,0,0,1-3.22.58,7.87,7.87,0,0,1-3.3-.64,5.12,5.12,0,0,1-2.18-1.79,4.51,4.51,0,0,1-.77-2.59,4.44,4.44,0,0,1,1.68-3.63c1.12-.92,2.88-1.37,5.29-1.37h4.34V99.9a3.44,3.44,0,0,0-1-2.7,4.58,4.58,0,0,0-3.13-1,9.13,9.13,0,0,0-2.78.44,7.06,7.06,0,0,0-2.31,1.23l-1.54-2.86a9.66,9.66,0,0,1,3.17-1.54,14.4,14.4,0,0,1,3.93-.53A8.2,8.2,0,0,1,208.16,94.76Zm-3.58,11.88a3.75,3.75,0,0,0,1.62-1.93v-1.95h-4c-2.27,0-3.4.74-3.4,2.23a2,2,0,0,0,.85,1.7,3.87,3.87,0,0,0,2.36.62A5.08,5.08,0,0,0,204.58,106.64Z"/><path d="M215,93.18h3.93V100h8.45V93.18h3.93V110h-3.93v-6.63h-8.45V110H215Z"/><path d="M249.87,96.51H244V110h-3.92V96.51h-5.91V93.18h15.71Z"/><path d="M267.65,102.82H254.49a4.56,4.56,0,0,0,1.8,2.94,6,6,0,0,0,3.63,1.08,6.16,6.16,0,0,0,4.56-1.82l2.1,2.42a7,7,0,0,1-2.86,2,10.41,10.41,0,0,1-3.89.69,10.26,10.26,0,0,1-4.87-1.1,7.87,7.87,0,0,1-3.25-3.06,8.6,8.6,0,0,1-1.15-4.45,8.71,8.71,0,0,1,1.12-4.41,7.84,7.84,0,0,1,3.09-3.06,9,9,0,0,1,4.46-1.1,8.81,8.81,0,0,1,4.38,1.08,7.64,7.64,0,0,1,3,3.05,9.26,9.26,0,0,1,1.08,4.54C267.71,101.93,267.69,102.32,267.65,102.82ZM256,97.24a4.67,4.67,0,0,0-1.58,3H264a4.59,4.59,0,0,0-4.75-4.08A4.75,4.75,0,0,0,256,97.24Z"/><path d="M282,110l-4.3-5.81L273.4,110h-4.33l6.53-8.51-6.25-8.26h4.37l4.11,5.49L282,93.18h4.24l-6.29,8.2,6.57,8.57Z"/><path d="M289.27,93.18h3.92V100h8.45V93.18h3.93V110h-3.93v-6.63h-8.45V110h-3.92Z"/><path d="M310.85,93.18h3.93v11.06l9.27-11.06h3.58V110H323.7V98.89L314.47,110h-3.62Z"/><path d="M339.88,103.23h-3.05V110h-3.92V93.18h3.92V100H340l5-6.78h4.21l-6.09,8.07,6.5,8.7h-4.62Z"/><path d="M352.32,93.18h3.93v11.06l9.27-11.06h3.58V110h-3.93V98.89L355.94,110h-3.62Z"/><path d="M144.11,26.82h14.71v4.37c3.51-3,10-5.22,16.73-5.22,11.72,0,19.6,5,19.6,18.76V78.5H179.91V44.62c0-8.42-2.77-11.94-11.29-11.94a27.41,27.41,0,0,0-9.16,1.6V78.5H144.11Z"/><path d="M218.57,75.55v3.09H203.86V0H219.1V29.84a25.56,25.56,0,0,1,14.17-3.73c14,0,23.23,9.37,23.23,26.63,0,16.95-8.95,26.75-23.23,26.75C227.63,79.49,222.62,78.32,218.57,75.55ZM241.05,53c0-15.45-4.47-20.78-13.85-20.78a25.13,25.13,0,0,0-8.1,1.39V72.24a25.8,25.8,0,0,0,8.21,1.39C236.47,73.63,241.05,68.62,241.05,53Z"/><path d="M120.09,29.92V26.83h14.7V78.5H119.56V75.64a25.67,25.67,0,0,1-14.17,3.72c-14,0-23.23-9.37-23.23-26.63,0-16.95,9-26.75,23.23-26.75C111,26,116,27.15,120.09,29.92ZM97.61,52.51c0,15.45,4.47,20.78,13.85,20.78a25.4,25.4,0,0,0,8.1-1.38V33.23a25.8,25.8,0,0,0-8.21-1.39C102.19,31.84,97.61,36.85,97.61,52.51Z"/><path d="M292.87,79c-18,0-30.48-5.44-30.48-26.43C262.39,34.5,273.58,26,287.86,26c15.45,0,24.72,8.21,24.72,25.68a25.89,25.89,0,0,1-.32,3.84H277.42c.32,15.23,4.69,18.43,18.54,18.43h13.37v5ZM277.42,50.69H298.3c-.32-14.49-2-19.6-10.33-19.6C280.08,31.09,277.63,36.09,277.42,50.69Z"/><path d="M318.72,79V73.92h16.16c10.87,0,14.49-2.45,14.49-7.24a5,5,0,0,0-2.88-5.12c-2.34-1.28-5.75-2.24-10-3.3-5.33-1.39-10.44-2.77-13.32-5.76a13.29,13.29,0,0,1-3.94-10c0-13.22,11.82-16.2,22.37-16.2a89.88,89.88,0,0,1,16.31,1.49v1.95c-4.37-.64-9.06,1.46-13.43,1.46-8.63,0-11.83,2.35-11.93,6.72,0,2.87,1.06,4.36,3.09,5.43,2.34,1.28,5.54,2.13,9.37,3.09,5.22,1.38,9.7,2.66,12.79,4.9,3.41,2.45,5,5.75,4.9,11.3C362.58,75.09,350.86,79,336.37,79Z"/><path d="M342.15,26.29h28.94V12h15.35V26.29H399v4.9H386.44V66.36c0,5.75,2.13,7.45,7.45,7.45a25.88,25.88,0,0,0,5.12-.64v4.59a54.22,54.22,0,0,1-11.51,1.17c-9.38,0-16.41-3-16.41-15V31.19H342.85Z"/><path d="M35.93,15.86H72A15.86,15.86,0,0,0,56.14,0H20.56A20.57,20.57,0,0,0,0,20.56V26a17.89,17.89,0,0,0,17.9,17.9H61.64L58.47,55.24a10,10,0,0,1-4,5.57L57.1,66.2H53.83l-4.27-3.66c-.26,0-.52.06-.79.06H28.64a10,10,0,0,1-1.22-.09l-4.3,3.69H19.86l2.76-5.62a10,10,0,0,1-3.35-4.36h0a10.9,10.9,0,0,0-10.14-6.9H0v7.62A21.56,21.56,0,0,0,21.56,78.5h32A22.92,22.92,0,0,0,76.52,55.58V41.2A19.86,19.86,0,0,0,56.65,21.33H44l1.49,6.53H26.79l2-6.53A7.37,7.37,0,0,1,35.93,15.86Z"/><rect class="cls-1" x="26.79" y="27.86" width="2.43" height="16.01"/><rect class="cls-1" x="32.22" y="27.86" width="2.43" height="16.01"/><rect class="cls-1" x="37.65" y="27.86" width="2.43" height="16.01"/><rect class="cls-1" x="43.08" y="27.86" width="2.43" height="16.01"/><path d="M50.55,60.17s2.92-.16,4.55-4.33a75,75,0,0,0,2.54-10H54.16Z"/></svg>